<svg width="41" height="41" viewBox="0 0 41 41" fill="none" xmlns="http://www.w3.org/2000/svg">
<rect x="0.75" y="0.75" width="39.5" height="39.5" rx="8.25" stroke="black" stroke-width="1.5"/>
<path d="M24.8737 18.4384V24.386H23.3569V18.4384H24.8737ZM23.2713 16.7775C23.2713 16.3134 23.6127 15.9593 24.1142 15.9593C24.6291 15.9593 24.9471 16.3134 24.9594 16.7775C24.9594 17.2294 24.628 17.5836 24.1031 17.5836C23.6015 17.5836 23.2713 17.2294 23.2713 16.7775Z" fill="black"/>
<path fill-rule="evenodd" clip-rule="evenodd" d="M21.2051 24.386L20.4589 22.0534H17.8411L17.1316 24.386H15.578L18.2203 16.1547H20.1408L22.8198 24.386H21.2051ZM18.7218 18.8903L18.0857 20.9176H20.202L19.5537 18.8903C19.4247 18.4851 19.3123 18.0399 19.2089 17.6324C19.1854 17.5387 19.1617 17.4451 19.1377 17.3515H19.1133C19.071 17.5147 19.0299 17.689 18.9865 17.8678C18.9042 18.212 18.8186 18.5695 18.7218 18.8903Z" fill="black"/>
<path fill-rule="evenodd" clip-rule="evenodd" d="M26.3472 10.3226C22.461 9.89247 18.539 9.89247 14.6528 10.3226C12.4153 10.5724 10.6082 12.3321 10.3458 14.577C9.88473 18.5124 9.88473 22.488 10.3458 26.4233C10.6082 28.6682 12.4142 30.4279 14.6528 30.6777C18.5391 31.1074 22.461 31.1074 26.3472 30.6777C28.5847 30.4279 30.3918 28.6682 30.6542 26.4233C31.1153 22.488 31.1153 18.5124 30.6542 14.577C30.3918 12.3321 28.5858 10.5724 26.3472 10.3226ZM14.8374 11.9768C18.601 11.5604 22.3991 11.5604 26.1626 11.9768C27.6417 12.1434 28.826 13.308 28.9984 14.7713C29.4443 18.5776 29.4443 22.4228 28.9984 26.229C28.9092 26.9452 28.5808 27.6104 28.0663 28.1173C27.5517 28.6241 26.8811 28.943 26.1626 29.0224C22.3991 29.4389 18.601 29.4389 14.8374 29.0224C14.119 28.943 13.4483 28.6241 12.9337 28.1173C12.4192 27.6104 12.0908 26.9452 12.0017 26.229C11.5558 22.4228 11.5558 18.5776 12.0017 14.7713C12.0908 14.0552 12.4192 13.3899 12.9337 12.8831C13.4483 12.3762 14.119 12.0562 14.8374 11.9768Z" fill="black"/>
</svg>
