<svg width="41" height="41" viewBox="0 0 41 41" fill="none" xmlns="http://www.w3.org/2000/svg">
<path fill-rule="evenodd" clip-rule="evenodd" d="M18.086 10.001C17.219 10.0004 16.3743 10.2757 15.6742 10.7872C14.9742 11.2987 14.4551 12.0198 14.1922 12.846C13.9293 13.6722 13.9363 14.5607 14.212 15.3826C14.4878 16.2046 15.0181 16.9175 15.726 17.418C15.193 17.7951 14.7583 18.2946 14.4584 18.8746C14.1586 19.4546 14.0024 20.0981 14.003 20.751C14.003 22.127 14.684 23.345 15.728 24.084C15.1561 24.4889 14.698 25.0341 14.3978 25.6672C14.0975 26.3004 13.9653 27.0001 14.0138 27.6992C14.0623 28.3982 14.2899 29.073 14.6747 29.6586C15.0594 30.2442 15.5884 30.721 16.2108 31.043C16.8331 31.365 17.5279 31.5214 18.2282 31.4971C18.9285 31.4729 19.6108 31.2689 20.2094 30.9046C20.808 30.5404 21.3028 30.0283 21.6462 29.4174C21.9895 28.8066 22.17 28.1177 22.17 27.417V23.913C22.5948 24.2571 23.0844 24.5125 23.6097 24.6639C24.135 24.8152 24.6853 24.8596 25.2281 24.7943C25.7709 24.7289 26.295 24.5553 26.7694 24.2836C27.2438 24.0119 27.6588 23.6477 27.9898 23.2127C28.3208 22.7776 28.561 22.2804 28.6963 21.7508C28.8316 21.2211 28.8591 20.6696 28.7772 20.1291C28.6954 19.5886 28.5058 19.07 28.2197 18.6041C27.9337 18.1383 27.557 17.7346 27.112 17.417C27.82 16.9165 28.3503 16.2036 28.626 15.3816C28.9018 14.5597 28.9087 13.6712 28.6458 12.845C28.383 12.0188 27.8639 11.2977 27.1638 10.7862C26.4638 10.2747 25.619 9.99937 24.752 10L18.086 10.001ZM20.669 23.334H18.086C17.7468 23.334 17.4109 23.2672 17.0976 23.1374C16.7842 23.0076 16.4994 22.8173 16.2596 22.5775C16.0197 22.3376 15.8295 22.0529 15.6996 21.7395C15.5698 21.4261 15.503 21.0902 15.503 20.751C15.503 20.4118 15.5698 20.0759 15.6996 19.7625C15.8295 19.4492 16.0197 19.1644 16.2596 18.9246C16.4994 18.6847 16.7842 18.4944 17.0976 18.3646C17.4109 18.2348 17.7468 18.168 18.086 18.168H20.669V23.334ZM18.086 16.668H20.669V11.501H18.086C17.4008 11.501 16.7437 11.7732 16.2592 12.2577C15.7747 12.7422 15.5025 13.3993 15.5025 14.0845C15.5025 14.7697 15.7747 15.4268 16.2592 15.9113C16.7437 16.3958 17.4008 16.668 18.086 16.668ZM27.336 14.084C27.3363 14.7687 27.0647 15.4255 26.5809 15.9101C26.0971 16.3946 25.4407 16.6672 24.756 16.668H22.169V11.501H24.753C25.0922 11.501 25.4281 11.5678 25.7415 11.6976C26.0549 11.8274 26.3396 12.0177 26.5795 12.2576C26.8193 12.4974 27.0096 12.7822 27.1394 13.0955C27.2692 13.4089 27.336 13.7448 27.336 14.084ZM22.169 20.748C22.1698 20.064 22.4419 19.4082 22.9256 18.9246C23.4092 18.4409 24.065 18.1688 24.749 18.168H24.755C25.2656 18.1686 25.7646 18.3205 26.1889 18.6046C26.6132 18.8886 26.9439 19.2921 27.139 19.7639C27.3341 20.2358 27.385 20.7549 27.2852 21.2557C27.1855 21.7564 26.9395 22.2164 26.5785 22.5775C26.2174 22.9385 25.7575 23.1845 25.2567 23.2842C24.7559 23.384 24.2368 23.3331 23.7649 23.138C23.2931 22.9428 22.8896 22.6122 22.6056 22.1879C22.3215 21.7636 22.1696 21.2646 22.169 20.754V20.748ZM18.086 24.834C17.5752 24.834 17.0758 24.9855 16.6511 25.2693C16.2263 25.553 15.8953 25.9564 15.6997 26.4283C15.5042 26.9002 15.453 27.4195 15.5526 27.9206C15.6522 28.4216 15.8981 28.8818 16.2592 29.2431C16.6204 29.6044 17.0805 29.8505 17.5815 29.9503C18.0825 30.05 18.6018 29.999 19.0738 29.8037C19.5458 29.6083 19.9493 29.2774 20.2332 28.8528C20.5172 28.4281 20.6688 27.9288 20.669 27.418V24.834H18.086Z" fill="black"/>
<rect x="0.75" y="0.75" width="39.5" height="39.5" rx="8.25" stroke="black" stroke-width="1.5"/>
</svg>
