<svg width="32" height="32" viewBox="0 0 32 32" fill="none" xmlns="http://www.w3.org/2000/svg">
<path d="M15.9999 0C7.17762 0 0 7.17757 0 16C0 24.8224 7.17762 32 15.9999 32C24.8224 32 32 24.8224 32 16C32 7.17757 24.8221 0 15.9999 0ZM15.9999 30.4219C8.04767 30.4219 1.57808 23.9521 1.57808 16C1.57808 8.04787 8.04767 1.57806 15.9999 1.57806C23.9521 1.57806 30.4219 8.04787 30.4219 16C30.4219 23.9521 23.9521 30.4219 15.9999 30.4219Z" fill="white"/>
<path d="M12.1422 10.9902V21.9988H8.28519L8.28665 22C7.57637 22 7 21.5135 7 20.9133V12.1781M12.1422 10.9902L10.9604 10.348C9.25018 9.41944 7 10.4592 7 12.1781M12.1422 10.9902L15.9993 13.0869L19.8578 10.9914L21.0367 10.3493M7 12.1781V13.6302L15.9993 18.5215L25 13.6302V12.1768C25 10.4579 22.7484 9.41821 21.0367 10.3493M21.0367 10.3493C22.7484 9.41821 24.9985 10.4579 24.9985 12.1768V20.9121C24.9978 21.2007 24.862 21.4773 24.621 21.6811C24.38 21.8848 24.0536 21.9991 23.7134 21.9988H19.8563V10.9914L21.0367 10.3493Z" stroke="white" stroke-width="1.5" stroke-linecap="round" stroke-linejoin="round"/>
</svg>
