<svg width="41" height="41" viewBox="0 0 41 41" fill="none" xmlns="http://www.w3.org/2000/svg">
<rect x="0.75" y="0.75" width="39.5" height="39.5" rx="8.25" stroke="white" stroke-width="1.5"/>
<path d="M15.9993 14.2377V27.9985H11.4994L11.5011 28C10.6724 28 10 27.3918 10 26.6417V15.7226M15.9993 14.2377L14.6204 13.4351C12.6252 12.2743 10 13.574 10 15.7226M15.9993 14.2377L20.4992 16.8586L25.0007 14.2392L26.3762 13.4366M10 15.7226V17.5378L20.4992 23.6518L31 17.5378V15.7211C31 13.5724 28.3731 12.2728 26.3762 13.4366M26.3762 13.4366C28.3731 12.2728 30.9983 13.5724 30.9983 15.7211V26.6401C30.9974 27.0009 30.839 27.3467 30.5578 27.6013C30.2767 27.856 29.8958 27.9989 29.4989 27.9985H24.999V14.2392L26.3762 13.4366Z" stroke="white" stroke-width="1.5" stroke-linecap="round" stroke-linejoin="round"/>
</svg>
