<svg width="32" height="32" viewBox="0 0 32 32" fill="none" xmlns="http://www.w3.org/2000/svg">
<path d="M15.9999 0C7.17762 0 0 7.17757 0 16C0 24.8224 7.17762 32 15.9999 32C24.8224 32 32 24.8224 32 16C32 7.17757 24.8221 0 15.9999 0ZM15.9999 30.4219C8.04767 30.4219 1.57808 23.9521 1.57808 16C1.57808 8.04787 8.04767 1.57806 15.9999 1.57806C23.9521 1.57806 30.4219 8.04787 30.4219 16C30.4219 23.9521 23.9521 30.4219 15.9999 30.4219Z" fill="white"/>
<path d="M12.22 7H19.78C22.66 7 25 9.21 25 11.93V19.07C25 20.3775 24.45 21.6315 23.4711 22.556C22.4922 23.4806 21.1644 24 19.78 24H12.22C9.34 24 7 21.79 7 19.07V11.93C7 10.6225 7.54996 9.36852 8.5289 8.44396C9.50784 7.51941 10.8356 7 12.22 7ZM12.04 8.7C11.1807 8.7 10.3566 9.02239 9.74897 9.59625C9.14136 10.1701 8.8 10.9484 8.8 11.76V19.24C8.8 20.9315 10.249 22.3 12.04 22.3H19.96C20.8193 22.3 21.6434 21.9776 22.251 21.4037C22.8586 20.8299 23.2 20.0516 23.2 19.24V11.76C23.2 10.0685 21.751 8.7 19.96 8.7H12.04ZM20.725 9.975C21.0234 9.975 21.3095 10.0869 21.5205 10.2862C21.7315 10.4855 21.85 10.7557 21.85 11.0375C21.85 11.3193 21.7315 11.5895 21.5205 11.7888C21.3095 11.9881 21.0234 12.1 20.725 12.1C20.4266 12.1 20.1405 11.9881 19.9295 11.7888C19.7185 11.5895 19.6 11.3193 19.6 11.0375C19.6 10.7557 19.7185 10.4855 19.9295 10.2862C20.1405 10.0869 20.4266 9.975 20.725 9.975ZM16 11.25C17.1935 11.25 18.3381 11.6978 19.182 12.4948C20.0259 13.2918 20.5 14.3728 20.5 15.5C20.5 16.6272 20.0259 17.7082 19.182 18.5052C18.3381 19.3022 17.1935 19.75 16 19.75C14.8065 19.75 13.6619 19.3022 12.818 18.5052C11.9741 17.7082 11.5 16.6272 11.5 15.5C11.5 14.3728 11.9741 13.2918 12.818 12.4948C13.6619 11.6978 14.8065 11.25 16 11.25ZM16 12.95C15.2839 12.95 14.5972 13.2187 14.0908 13.6969C13.5845 14.1751 13.3 14.8237 13.3 15.5C13.3 16.1763 13.5845 16.8249 14.0908 17.3031C14.5972 17.7813 15.2839 18.05 16 18.05C16.7161 18.05 17.4028 17.7813 17.9092 17.3031C18.4155 16.8249 18.7 16.1763 18.7 15.5C18.7 14.8237 18.4155 14.1751 17.9092 13.6969C17.4028 13.2187 16.7161 12.95 16 12.95Z" fill="white"/>
</svg>
