<svg width="41" height="41" viewBox="0 0 41 41" fill="none" xmlns="http://www.w3.org/2000/svg">
<rect x="0.75" y="0.75" width="39.5" height="39.5" rx="8.25" stroke="black" stroke-width="1.5"/>
<path d="M21.375 19.625C21.375 18.9288 21.6516 18.2611 22.1438 17.7688C22.6361 17.2766 23.3038 17 24 17H26.625C26.8571 17 27.0796 17.0922 27.2437 17.2563C27.4078 17.4204 27.5 17.6429 27.5 17.875C27.5 18.1071 27.4078 18.3296 27.2437 18.4937C27.0796 18.6578 26.8571 18.75 26.625 18.75H24C23.7679 18.75 23.5454 18.8422 23.3813 19.0063C23.2172 19.1704 23.125 19.3929 23.125 19.625V20.5C23.125 20.7321 23.2172 20.9546 23.3813 21.1187C23.5454 21.2828 23.7679 21.375 24 21.375H24.875C25.5712 21.375 26.2389 21.6516 26.7312 22.1438C27.2234 22.6361 27.5 23.3038 27.5 24V24.875C27.5 25.5712 27.2234 26.2389 26.7312 26.7312C26.2389 27.2234 25.5712 27.5 24.875 27.5H22.25C22.0179 27.5 21.7954 27.4078 21.6313 27.2437C21.4672 27.0796 21.375 26.8571 21.375 26.625C21.375 26.3929 21.4672 26.1704 21.6313 26.0063C21.7954 25.8422 22.0179 25.75 22.25 25.75H24.875C25.1071 25.75 25.3296 25.6578 25.4937 25.4937C25.6578 25.3296 25.75 25.1071 25.75 24.875V24C25.75 23.7679 25.6578 23.5454 25.4937 23.3813C25.3296 23.2172 25.1071 23.125 24.875 23.125H24C23.3038 23.125 22.6361 22.8484 22.1438 22.3562C21.6516 21.8639 21.375 21.1962 21.375 20.5V19.625ZM20.5 17.875C20.5 17.6429 20.4078 17.4204 20.2437 17.2563C20.0796 17.0922 19.8571 17 19.625 17C19.3929 17 19.1704 17.0922 19.0063 17.2563C18.8422 17.4204 18.75 17.6429 18.75 17.875V24.875C18.75 25.1071 18.6578 25.3296 18.4937 25.4937C18.3296 25.6578 18.1071 25.75 17.875 25.75H16.125C15.8929 25.75 15.6704 25.8422 15.5063 26.0063C15.3422 26.1704 15.25 26.3929 15.25 26.625C15.25 26.8571 15.3422 27.0796 15.5063 27.2437C15.6704 27.4078 15.8929 27.5 16.125 27.5H17.875C18.5712 27.5 19.2389 27.2234 19.7312 26.7312C20.2234 26.2389 20.5 25.5712 20.5 24.875V17.875ZM10 14.375C10 13.2147 10.4609 12.1019 11.2814 11.2814C12.1019 10.4609 13.2147 10 14.375 10H26.625C27.7853 10 28.8981 10.4609 29.7186 11.2814C30.5391 12.1019 31 13.2147 31 14.375V26.625C31 27.7853 30.5391 28.8981 29.7186 29.7186C28.8981 30.5391 27.7853 31 26.625 31H14.375C13.2147 31 12.1019 30.5391 11.2814 29.7186C10.4609 28.8981 10 27.7853 10 26.625V14.375ZM14.375 11.75C13.6788 11.75 13.0111 12.0266 12.5188 12.5188C12.0266 13.0111 11.75 13.6788 11.75 14.375V26.625C11.75 27.3212 12.0266 27.9889 12.5188 28.4812C13.0111 28.9734 13.6788 29.25 14.375 29.25H26.625C27.3212 29.25 27.9889 28.9734 28.4812 28.4812C28.9734 27.9889 29.25 27.3212 29.25 26.625V14.375C29.25 13.6788 28.9734 13.0111 28.4812 12.5188C27.9889 12.0266 27.3212 11.75 26.625 11.75H14.375Z" fill="black"/>
</svg>
