<svg width="41" height="41" viewBox="0 0 41 41" fill="none" xmlns="http://www.w3.org/2000/svg">
<rect x="0.75" y="0.75" width="39.5" height="39.5" rx="8.25" stroke="black" stroke-width="1.5"/>
<path fill-rule="evenodd" clip-rule="evenodd" d="M17.2694 24.386H15.7771V16.2646C16.3153 16.1669 17.0615 16.0936 18.0768 16.0936C19.1777 16.0936 19.9851 16.3257 20.5122 16.7653C21.0015 17.1683 21.3184 17.8156 21.3184 18.585C21.3184 19.3666 21.0738 20.0139 20.609 20.4535C20.0096 21.052 19.0676 21.3328 18.0034 21.3328C17.7221 21.3328 17.4652 21.3206 17.2694 21.284V24.386ZM18.138 17.2416C17.7221 17.2416 17.4285 17.2782 17.2706 17.3149V20.0994C17.4529 20.1482 17.6976 20.1604 18.0045 20.1604C19.1288 20.1604 19.8138 19.6109 19.8138 18.6461C19.8138 17.7301 19.1777 17.2416 18.138 17.2416Z" fill="black"/>
<path d="M23.2412 24.5203C22.5184 24.5203 21.8711 24.3372 21.4308 24.0929L21.7243 23.006C22.0669 23.2136 22.7141 23.4334 23.2534 23.4334C23.914 23.4334 24.2076 23.1647 24.2076 22.7739C24.2076 22.3709 23.9629 22.1633 23.229 21.9068C22.0669 21.5038 21.5776 20.8688 21.5898 20.1726C21.5898 19.1224 22.4572 18.3041 23.8406 18.3041C24.5011 18.3041 25.075 18.4751 25.4186 18.6583L25.125 19.7208C24.7398 19.5047 24.3069 19.3872 23.865 19.3788C23.3268 19.3788 23.0332 19.6353 23.0332 20.0017C23.0332 20.3803 23.3146 20.5634 24.073 20.8321C25.1495 21.2229 25.651 21.7725 25.6632 22.6518C25.6632 23.7265 24.8181 24.5203 23.2412 24.5203Z" fill="black"/>
<path fill-rule="evenodd" clip-rule="evenodd" d="M26.3472 10.3226C22.4609 9.89247 18.539 9.89247 14.6528 10.3226C12.4153 10.5724 10.6082 12.3321 10.3458 14.577C9.88474 18.5124 9.88474 22.488 10.3458 26.4233C10.6082 28.6682 12.4142 30.4279 14.6528 30.6777C18.539 31.1074 22.4609 31.1074 26.3472 30.6777C28.5846 30.4279 30.3917 28.6682 30.6541 26.4233C31.1153 22.488 31.1153 18.5124 30.6541 14.577C30.3917 12.3321 28.5857 10.5724 26.3472 10.3226ZM14.8374 11.9768C18.6009 11.5604 22.399 11.5604 26.1626 11.9768C27.6416 12.1434 28.8259 13.308 28.9983 14.7713C29.4442 18.5776 29.4442 22.4228 28.9983 26.229C28.9091 26.9452 28.5808 27.6104 28.0662 28.1173C27.5517 28.6241 26.881 28.943 26.1626 29.0224C22.399 29.4389 18.6009 29.4389 14.8374 29.0224C14.1189 28.943 13.4483 28.6241 12.9337 28.1173C12.4192 27.6104 12.0908 26.9452 12.0016 26.229C11.5558 22.4228 11.5558 18.5776 12.0016 14.7713C12.0908 14.0552 12.4192 13.3899 12.9337 12.8831C13.4483 12.3762 14.1189 12.0562 14.8374 11.9768Z" fill="black"/>
</svg>
