<svg width="32" height="32" viewBox="0 0 32 32" fill="none" xmlns="http://www.w3.org/2000/svg">
<path d="M15.9997 0C7.17756 0 0 7.17757 0 16C0 24.8227 7.17756 32 15.9997 32C24.8222 32 32 24.8227 32 16C31.9997 7.17757 24.8219 0 15.9997 0ZM15.9997 30.4219C8.0476 30.4219 1.57806 23.9524 1.57806 16C1.57806 8.04787 8.0476 1.57806 15.9997 1.57806C23.9519 1.57806 30.4219 8.04787 30.4219 16C30.4217 23.9524 23.9519 30.4219 15.9997 30.4219Z" fill="black"/>
<path fill-rule="evenodd" clip-rule="evenodd" d="M24 23L18.134 14.2577L18.1441 14.2659L23.4331 8H21.6656L17.3571 13.1L13.9355 8H9.30013L14.7766 16.1621L14.7759 16.1614L9 23H10.7675L15.5576 17.3259L19.3646 23H24ZM13.2352 9.36363L21.4655 21.6364H20.0649L11.8279 9.36363H13.2352Z" fill="black"/>
</svg>
